# xmcd CD database file
#
# Track frame offsets:
#	150
#	12879
#	25944
#	40351
#	51976
#	65797
#	77175
#	91408
#	106421
#	120756
#	133019
#	147892
#	163559
#	179393
#	193520
#	207018
#	218757
#	230379
#	243279
#	255192
#	270235
#	284661
#	299594
#
# Disc length: 4157 seconds
#
# Revision: 0
# Processed by: cddbd v1.5.2PL0 Copyright (c) Steve Scherf et al.
# Submitted via: CDex 1.51
#
DISCID=49103b17
DTITLE=Sarah Vaughan - The Complete Columbia Singles (2/3)
DYEAR=2019
DGENRE=Jazz
TTITLE0=I Can't Get Out of This Mood
TTITLE1=Mean to Me
TTITLE2=It Might As Well Be Spring
TTITLE3=I Love the Guy
TTITLE4=Thinking of You
TTITLE5=Perdido
TTITLE6=Whippa Whippa Woo
TTITLE7=The Nearness of You
TTITLE8=You're Mine You
TTITLE9=De Gas Pipe, She's Leaking, Joe
TTITLE10=I'll Know
TTITLE11=Ave Maria
TTITLE12=A City Called Heaven
TTITLE13=Deep Purple
TTITLE14=These Things I Offer You
TTITLE15=Vanity
TTITLE16=My Reverie
TTITLE17=After Hours
TTITLE18=Out of Breath
TTITLE19=Just a Moment More
TTITLE20=I Ran All the Way Home
TTITLE21=A Miracle Happened
TTITLE22=Pinky
EXTD=YEAR: 2019
EXTT0=
EXTT1=
EXTT2=
EXTT3=
EXTT4=
EXTT5=
EXTT6=
EXTT7=
EXTT8=
EXTT9=
EXTT10=
EXTT11=
EXTT12=
EXTT13=
EXTT14=
EXTT15=
EXTT16=
EXTT17=
EXTT18=
EXTT19=
EXTT20=
EXTT21=
EXTT22=
PLAYORDER=
